:SAMPLES-PER-SECOND 30
:FRAME-RANGE 1-2045
:FULLY-SPECIFIED
:DEGREES
1982
root  80.1008 38.6625 -21.2747 176.97 -13.8727 -173.049
RightUpLeg  -15.3824 -2.34167 6.21436
RightLeg  12.6888 -17.4716 1.49704
RightFoot  2.02868 0.140772 -1.08231
RightToes  5.82063e-011 0 -3.6325e-017
Spine  4.5837 -2.87179 8.32824
Spine1  2.95443 -3.01517 4.02619
HEad  -18.183 15.4304 -18.9944
LeftShoulder1  1.93973 -1.29376 -34.3781
LeftArm  -3.65074 -16.0339 -37.0047
LeftForeArm  7.80362 4.8978 -17.8115
LeftHand  0.02704 2.28811 -1.51526
RightShoulder  4.66104 4.55156 50.7121
RightArm  10.1536 -3.50942 10.7611
RightForeArm  14.3809 -4.68103 17.9075
RightHand  0.55345 5.41139 5.61761
LeftUpLeg  9.19263 7.29766 7.4921
LeftLeg  37.6442 -13.4519 -10.5645
LeftFoot  -0.602109 1.2931 -13.668
LeftToes  -3.90176e-010 -2.48536e-010 1.05482e-011
1983
root  80.0795 38.5634 -22.3526 176.86 -16.8431 -172.15
RightUpLeg  -15.2783 -3.51681 6.80553
RightLeg  15.899 -19.0225 0.500539
RightFoot  -1.44025 0.00197885 -0.135957
RightToes  5.82063e-011 0 -3.6325e-017
Spine  5.37238 -3.47486 9.58779
Spine1  2.94245 -3.32066 4.9076
HEad  -18.1208 15.4095 -15.8741
LeftShoulder1  1.9372 -1.38859 -33.5539
LeftArm  1.48246 -13.6433 -34.8833
LeftForeArm  0.449823 3.91703 -18.8461
LeftHand  -0.0169082 4.53352 -1.21051
RightShoulder  4.15971 3.56743 51.5529
RightArm  10.1996 -4.71515 11.6636
RightForeArm  15.0589 -3.43438 17.729
RightHand  0.550043 5.51489 5.52193
LeftUpLeg  1.65049 4.37252 9.39268
LeftLeg  48.815 -11.5025 -13.353
LeftFoot  9.78948 3.80307 -20.5211
LeftToes  -3.90176e-010 -2.48536e-010 1.05482e-011
1984
root  80.0001 38.4772 -23.4473 176.194 -18.8719 -171.408
RightUpLeg  -14.0736 -4.46941 7.46601
RightLeg  18.2159 -19.8522 -0.360353
RightFoot  -4.52547 -0.0792313 0.813723
RightToes  5.82063e-011 0 -3.6325e-017
Spine  6.22749 -3.47997 11.6417
Spine1  3.1308 -2.72337 4.53193
HEad  -17.9636 14.7389 -13.3859
LeftShoulder1  1.93512 -1.3575 -33.7618
LeftArm  8.05117 -11.2947 -31.9089
LeftForeArm  -3.72572 1.8627 -19.5226
LeftHand  -0.021141 4.9389 -2.0018
RightShoulder  3.91618 3.06243 52.2572
RightArm  11.3677 -5.54416 12.7376
RightForeArm  14.8667 -2.0913 17.6796
RightHand  0.510678 5.47679 5.1248
LeftUpLeg  -4.05703 2.97195 10.927
LeftLeg  56.7292 -8.16839 -12.6982
LeftFoot  13.2622 4.28198 -19.8415
LeftToes  -3.90176e-010 -2.48536e-010 1.05482e-011
1985
root  79.8712 38.6096 -24.6947 175.915 -19.6131 -172.168
RightUpLeg  -11.5682 -5.19368 7.06402
RightLeg  18.5973 -19.6861 -0.771914
RightFoot  -6.75348 -0.104868 1.47265
RightToes  5.82063e-011 0 -3.6325e-017
Spine  6.8391 -2.70289 12.0628
Spine1  2.97579 -1.49232 3.40548
HEad  -17.4601 14.1022 -11.2591
LeftShoulder1  1.85439 -1.14136 -33.8722
LeftArm  13.0942 -7.67142 -28.9532
LeftForeArm  -6.30798 0.554559 -19.7902
LeftHand  0.0215544 3.78683 -3.25178
RightShoulder  4.20344 3.46707 52.807
RightArm  13.2816 -5.82667 13.7194
RightForeArm  14.7692 -1.4168 17.7641
RightHand  0.514569 5.6948 5.05168
LeftUpLeg  -8.60902 3.11627 10.7585
LeftLeg  61.4709 -4.43827 -8.25112
LeftFoot  9.73254 2.80622 -15.3319
LeftToes  -3.90176e-010 -2.48536e-010 1.05482e-011
1986
root  79.7074 38.7411 -25.9349 175.995 -19.5033 -173.358
RightUpLeg  -9.10328 -5.79976 6.37331
RightLeg  18.557 -18.5579 -0.936934
RightFoot  -8.69722 -0.101401 1.83621
RightToes  5.82063e-011 0 -3.6325e-017
Spine  7.29645 -1.56893 12.3759
Spine1  2.52919 0.0822431 1.78636
HEad  -16.6161 13.8344 -9.71513
LeftShoulder1  1.72566 -0.846232 -33.6199
LeftArm  13.1547 -3.30364 -26.4096
LeftForeArm  -4.88073 0.124078 -19.569
LeftHand  0.0994322 2.4365 -4.5477
RightShoulder  4.90096 4.55787 53.207
RightArm  16.6608 -5.31325 14.3943
RightForeArm  14.849 -0.958171 17.994
RightHand  0.484029 5.65632 4.75186
LeftUpLeg  -12.7135 4.13353 9.92042
LeftLeg  63.4106 -1.4722 -2.60199
LeftFoot  7.88477 1.92868 -11.6408
LeftToes  -3.90176e-010 -2.48536e-010 1.05482e-011
1987
root  79.4905 38.8847 -27.1594 176.165 -18.9034 -174.605
RightUpLeg  -6.42324 -6.3664 5.44458
RightLeg  17.9074 -17.1934 -0.79356
RightFoot  -10.2157 -0.0907406 2.18367
RightToes  5.82063e-011 0 -3.6325e-017
Spine  7.67907 -0.341346 12.9638
Spine1  1.96947 1.76722 -0.468276
HEad  -15.3508 13.698 -8.68147
LeftShoulder1  1.60002 -0.578574 -33.1434
LeftArm  12.8473 1.09413 -24.4071
LeftForeArm  -3.10587 -2.45604 -18.8196
LeftHand  0.155585 1.64349 -5.18841
RightShoulder  5.80052 6.01249 53.3292
RightArm  20.0433 -4.2166 14.8219
RightForeArm  15.6909 -0.535129 18.1661
RightHand  0.453275 5.93653 4.30404
LeftUpLeg  -16.1508 5.31173 8.61404
LeftLeg  62.7116 0.0566742 0.716205
LeftFoot  5.94327 1.23531 -8.35584
LeftToes  -3.90176e-010 -2.48536e-010 1.05482e-011
1988
root  79.2481 38.9993 -28.3528 176.407 -18.7905 -175.781
RightUpLeg  -3.8427 -6.86563 4.42383
RightLeg  17.1534 -16.593 -0.804315
RightFoot  -11.6574 -0.0714369 2.75789
RightToes  5.82063e-011 0 -3.6325e-017
Spine  7.98726 0.647168 13.1156
Spine1  1.31175 2.95786 -2.25905
HEad  -14.3154 13.7463 -8.39865
LeftShoulder1  1.50259 -0.388748 -32.5517
LeftArm  13.437 5.47051 -23.2205
LeftForeArm  -3.34742 -5.35667 -17.8365
LeftHand  0.179864 1.2708 -5.34184
RightShoulder  6.73739 7.62488 52.9738
RightArm  23.5165 -2.84768 14.9011
RightForeArm  15.1023 0.591708 18.254
RightHand  0.431839 6.01835 4.05113
LeftUpLeg  -19.2423 5.90932 6.99638
LeftLeg  59.5431 0.181305 0.87172
LeftFoot  3.43127 0.784209 -6.20716
LeftToes  -3.90176e-010 -2.48536e-010 1.05482e-011
1989
root  78.9816 39.1262 -29.5269 176.639 -18.986 -176.973
RightUpLeg  -0.924948 -7.51356 3.09181
RightLeg  15.7087 -15.9747 -0.29673
RightFoot  -12.7088 -0.0508698 2.95588
RightToes  5.82063e-011 0 -3.6325e-017
Spine  8.2988 1.4242 12.7948
Spine1  0.637772 3.75369 -3.75592
HEad  -13.6064 14.2347 -8.92054
LeftShoulder1  1.42933 -0.234957 -32.1786
LeftArm  14.0043 9.43616 -22.5743
LeftForeArm  -3.80143 -7.47797 -16.9147
LeftHand  0.162676 1.2509 -4.82396
RightShoulder  7.41832 8.97785 52.0304
RightArm  24.7183 -0.846914 14.9862
RightForeArm  14.7623 0.853481 18.3307
RightHand  0.396109 6.02684 3.68553
LeftUpLeg  -21.3758 6.11819 5.16088
LeftLeg  53.5905 -0.530061 -0.3137
LeftFoot  0.831815 0.738285 -6.96662
LeftToes  -3.90176e-010 -2.48536e-010 1.05482e-011
1990
root  78.7118 39.265 -30.6832 176.839 -19.5556 -177.971
RightUpLeg  2.31977 -7.66958 2.05148
RightLeg  13.4438 -16.0141 0.143644
RightFoot  -13.2071 -0.0356001 3.31138
RightToes  5.82063e-011 0 -3.6325e-017
Spine  8.3259 1.9882 12.1559
Spine1  0.372988 4.20824 -4.92929
HEad  -13.0238 15.0643 -9.64567
LeftShoulder1  1.37709 -0.121562 -31.9318
LeftArm  13.7816 12.8009 -22.5109
LeftForeArm  -3.59138 -8.34834 -16.4143
LeftHand  0.130457 1.33668 -4.00639
RightShoulder  8.00346 10.3174 50.7156
RightArm  24.2625 1.06983 14.8312
RightForeArm  14.2678 1.19046 18.2704
RightHand  0.392255 5.9252 3.68508
LeftUpLeg  -22.3371 6.44451 3.2806
LeftLeg  44.715 -1.49408 -1.19552
LeftFoot  -0.349576 0.663243 -6.86752
LeftToes  -3.90176e-010 -2.48536e-010 1.05482e-011
1991
root  78.4381 39.3756 -31.7779 177.375 -20.1696 -178.947
RightUpLeg  5.15473 -7.52218 1.19122
RightLeg  11.0277 -16.7015 0.408973
RightFoot  -13.6483 -0.00844252 4.17594
RightToes  5.82063e-011 0 -3.6325e-017
Spine  8.2348 2.49304 11.2023
Spine1  0.0702541 4.52678 -5.80824
HEad  -12.7593 16.4639 -10.6655
LeftShoulder1  1.37165 -0.105291 -31.9521
LeftArm  11.8181 15.3455 -22.7361
LeftForeArm  -1.8828 -7.3625 -16.6597
LeftHand  0.101732 1.55827 -3.39739
RightShoulder  8.49332 11.5731 49.3403
RightArm  21.4296 3.04983 14.2677
RightForeArm  14.6566 0.85083 18.1592
RightHand  0.380198 5.75602 3.62572
LeftUpLeg  -22.344 7.59061 1.04745
LeftLeg  32.8686 -2.22346 -1.20732
LeftFoot  0.177614 0.682183 -6.77058
LeftToes  -3.90176e-010 -2.48536e-010 1.05482e-011
